<svg width="730" height="175" viewBox="0 0 730 175" fill="none" xmlns="http://www.w3.org/2000/svg">
<g clip-path="url(#clip0_71_763)">
<path d="M155.03 0C164.531 0 169.119 4.64923 169.445 13.2968L174.668 109.241H137.608L133.175 28.9647H129.858L114.358 78.851C111.986 86.5997 107.383 90.722 98.5168 90.722H75.7007C67.1447 90.722 62.4016 86.5997 59.8596 78.851L44.1891 28.9647H41.0891L37.2916 109.241H0.168945L5.08246 13.2968C5.39246 4.64923 10.151 0 19.6525 0L55.9691 0C64.6801 0 69.9192 3.95185 71.4692 12.026L83.4972 50.0257C85.2332 55.2484 85.2332 61.2769 86.0392 66.8094H88.2092C88.9997 61.2769 89.3097 55.2484 90.9062 50.0257L102.299 12.026C104.019 3.95185 109.429 0 118.295 0L155.03 0Z" fill="black"/>
<path d="M192.664 109.241V0L233.042 0V109.241H192.664Z" fill="black"/>
<path d="M382.137 154.54C382.137 165.389 376.665 171.433 365.722 171.433H347.603C337.899 171.433 332.924 167.434 329.002 157.485L303.365 100.377C298.901 87.7 296.406 73.5353 293.678 61.1064H292.128C293.12 74.2792 293.879 88.1959 293.879 100.873L293.631 171.433H250.169V16.8922C250.169 6.044 256.137 0 266.584 0L284.982 0C295.15 0 299.63 3.96734 303.582 13.9477L329.653 69.599C334.133 81.7645 335.853 93.6975 339.852 108.095H340.844C339.62 93.4495 339.294 80.0443 339.294 67.8013V0L382.044 0L382.137 154.54Z" fill="black"/>
<path d="M528.829 101.369C528.829 155.61 512.415 174.656 466.953 174.656C417.26 174.656 399.357 155.532 399.357 101.369V0L447.33 0V101.369C447.33 130.442 451.05 138.392 464.705 138.392C477.632 138.392 480.872 130.442 480.872 101.369V0L528.829 0V101.369Z" fill="black"/>
<path d="M545.771 171.433V0L593.821 0V171.433H545.771Z" fill="black"/>
<path d="M690.929 36.7754V171.433H642.739V36.7754H604.221V0L729.942 0V36.7754H690.929Z" fill="black"/>
<path d="M13.3285 160.553L11.7785 169.976H0.168945L8.53897 132.534C8.72498 131.678 9.2086 130.915 9.90388 130.382C10.5992 129.848 11.4611 129.579 12.3365 129.621H22.458C23.3503 129.591 24.2265 129.863 24.9461 130.391C25.6656 130.919 26.1868 131.674 26.426 132.534L34.6255 169.976H23.1555L21.6055 160.553H13.3285ZM18.6605 142.359C18.428 140.965 18.1955 139.446 18.0715 138.036H16.785C16.7152 139.485 16.5599 140.929 16.32 142.359L14.677 152.433H20.319L18.6605 142.359Z" fill="black"/>
<path d="M56.8061 166.876C56.6936 167.771 56.2449 168.589 55.5511 169.164C54.8573 169.74 53.9705 170.03 53.0706 169.976H43.1816C42.2804 170.007 41.3985 169.71 40.7 169.14C40.0014 168.57 39.5338 167.765 39.384 166.876L31.541 129.683H43.2436L47.1031 157.051C47.2116 158.508 47.4441 160.15 47.5681 161.607H48.6841L49.2576 157.051L53.0086 129.683H64.7111L56.8061 166.876Z" fill="black"/>
<path d="M74.7862 160.553L73.2362 169.976H61.6266L69.9192 132.534C70.1113 131.678 70.5986 130.917 71.2958 130.384C71.993 129.851 72.8556 129.581 73.7322 129.621H83.8692C84.7615 129.591 85.6377 129.863 86.3573 130.391C87.0768 130.919 87.598 131.674 87.8372 132.534L96.0368 169.976H84.5667L83.0167 160.553H74.7862ZM80.1182 142.359C79.8702 140.965 79.6377 139.446 79.5292 138.036H78.2427C78.1729 139.485 78.0176 140.929 77.7777 142.359L76.1192 152.433H81.7302L80.1182 142.359Z" fill="black"/>
<path d="M128.68 165.993C128.757 166.523 128.711 167.064 128.546 167.573C128.381 168.083 128.102 168.548 127.729 168.933C127.356 169.317 126.9 169.611 126.396 169.792C125.892 169.973 125.353 170.036 124.82 169.976H120.558C118.264 169.976 117.101 169.031 116.156 166.69L110.219 153.254C109.269 150.205 108.508 147.099 107.941 143.956H107.584C107.817 147.055 107.987 150.341 107.987 153.254V169.867H97.6178V133.588C97.5527 133.061 97.6069 132.526 97.7762 132.022C97.9455 131.519 98.2257 131.06 98.5961 130.679C98.9666 130.298 99.4177 130.006 99.9164 129.822C100.415 129.639 100.948 129.57 101.477 129.621H105.802C108.204 129.621 109.258 130.55 110.188 132.891L116.388 146.001C117.427 148.853 117.845 151.673 118.775 155.052H119.023C118.729 151.611 118.667 148.45 118.667 145.583V129.621H128.726L128.68 165.993Z" fill="black"/>
<path d="M151.449 138.268V169.976H140.103V138.268H131.036V129.621H160.641V138.268H151.449Z" fill="black"/>
<path d="M185.348 158.57C185.304 159.149 185.486 159.723 185.856 160.17C186.226 160.618 186.755 160.905 187.332 160.972H198.57L199.035 169.449C193.129 170.065 187.192 170.318 181.256 170.208C177.799 170.208 174.048 166.458 174.048 161.266V129.621H185.348V158.57Z" fill="black"/>
<path d="M211.745 160.553L210.195 169.976H198.57L206.924 132.534C207.116 131.678 207.604 130.917 208.301 130.384C208.998 129.851 209.861 129.581 210.737 129.621H220.859C221.765 129.576 222.66 129.839 223.398 130.368C224.136 130.897 224.672 131.661 224.92 132.534L233.119 169.976H221.649L220.099 160.553H211.745ZM217.061 142.359C216.829 140.965 216.596 139.446 216.488 138.036H215.201C215.131 139.485 214.976 140.929 214.736 142.359L213.093 152.433H218.72L217.061 142.359Z" fill="black"/>
</g>
<defs>
<clipPath id="clip0_71_763">
<rect width="729.773" height="174.656" fill="white" transform="translate(0.168945)"/>
</clipPath>
</defs>
</svg>
