<svg xmlns="http://www.w3.org/2000/svg" viewBox="0 0 470.82 112.7"><defs><style>.cls-1{fill:#231f20;}</style></defs><g id="Layer_2" data-name="Layer 2"><g id="Layer_1-2" data-name="Layer 1"><path class="cls-1" d="M99.91,0c6.13,0,9.09,3,9.3,8.58l3.37,61.91H88.67l-2.86-51.8H83.67l-10,32.19c-1.53,5-4.5,7.66-10.22,7.66H48.73c-5.52,0-8.58-2.66-10.22-7.66L28.4,18.69h-2l-2.45,51.8H0L3.17,8.58C3.37,3,6.44,0,12.57,0H36c5.62,0,9,2.55,10,7.76l7.76,24.52c1.12,3.37,1.12,7.26,1.64,10.83H56.8c.51-3.57.71-7.46,1.74-10.83L65.89,7.76C67,2.55,70.49,0,76.21,0Z"/><path class="cls-1" d="M124.19,70.49V0h26.05V70.49Z"/><path class="cls-1" d="M246.43,99.72c0,7-3.53,10.9-10.59,10.9H224.15c-6.26,0-9.47-2.58-12-9L195.61,64.77c-2.88-8.18-4.49-17.32-6.25-25.34h-1c.64,8.5,1.13,17.48,1.13,25.66l-.16,45.53H161.29V10.9c0-7,3.85-10.9,10.59-10.9h11.87c6.56,0,9.45,2.56,12,9l16.82,35.91c2.89,7.85,4,15.55,6.58,24.84h.64c-.79-9.45-1-18.1-1-26V0h27.58Z"/><path class="cls-1" d="M341.07,65.41c0,35-10.59,47.29-39.92,47.29-32.06,0-43.61-12.34-43.61-47.29V0h30.95V65.41c0,18.76,2.4,23.89,11.21,23.89,8.34,0,10.43-5.13,10.43-23.89V0h30.94Z"/><path class="cls-1" d="M352,110.62V0H383V110.62Z"/><path class="cls-1" d="M445.65,23.73v86.89H414.56V23.73H389.71V0h81.11V23.73Z"/><path class="cls-1" d="M8.49,103.6l-1,6.08H0L5.4,85.52a2.39,2.39,0,0,1,2.45-1.88h6.53a2.57,2.57,0,0,1,2.56,1.88l5.29,24.16h-7.4l-1-6.08Zm3.44-11.74c-.15-.9-.3-1.88-.38-2.79h-.83a23.79,23.79,0,0,1-.3,2.79l-1.06,6.5H13Z"/><path class="cls-1" d="M36.54,107.68a2.29,2.29,0,0,1-2.41,2H27.75a2.4,2.4,0,0,1-2.45-2l-5.06-24h7.55l2.49,17.66c.07.94.22,2,.3,2.94h.72l.37-2.94,2.42-17.66h7.55Z"/><path class="cls-1" d="M48.14,103.6l-1,6.08H39.65L45,85.52a2.41,2.41,0,0,1,2.46-1.88H54a2.57,2.57,0,0,1,2.56,1.88l5.29,24.16h-7.4l-1-6.08Zm3.44-11.74c-.16-.9-.31-1.88-.38-2.79h-.83a23.79,23.79,0,0,1-.3,2.79L49,98.36h3.62Z"/><path class="cls-1" d="M82.91,107.11a2.26,2.26,0,0,1-2.49,2.57H77.67c-1.48,0-2.23-.61-2.84-2.12L71,98.89a49.92,49.92,0,0,1-1.47-6h-.23c.15,2,.26,4.12.26,6l0,10.72H62.87V86.2a2.29,2.29,0,0,1,2.49-2.56h2.79c1.55,0,2.23.6,2.83,2.11l4,8.46c.67,1.84.94,3.66,1.54,5.84h.16c-.19-2.22-.23-4.26-.23-6.11V83.64h6.49Z"/><path class="cls-1" d="M97.6,89.22v20.46H90.28V89.22H84.43V83.64h19.1v5.58Z"/><path class="cls-1" d="M119.47,102.32a1.45,1.45,0,0,0,1.28,1.55H128l.3,5.47a93.82,93.82,0,0,1-11.47.49c-2.23,0-4.65-2.42-4.65-5.77V83.64h7.29Z"/><path class="cls-1" d="M136.5,103.6l-1,6.08H128l5.39-24.16a2.41,2.41,0,0,1,2.46-1.88h6.53A2.59,2.59,0,0,1,145,85.52l5.29,24.16h-7.4l-1-6.08Zm3.43-11.74c-.15-.9-.3-1.88-.37-2.79h-.83a23.79,23.79,0,0,1-.3,2.79l-1.06,6.5H141Z"/></g></g></svg>