<svg width="730" height="337" viewBox="0 0 730 337" fill="none" xmlns="http://www.w3.org/2000/svg">
<g clip-path="url(#clip0_104_262)">
<path d="M155.03 0C164.531 0 169.119 4.64923 169.445 13.2968L174.668 109.241H137.608L133.175 28.9647H129.858L114.358 78.851C111.986 86.5997 107.383 90.722 98.5168 90.722H75.7007C67.1447 90.722 62.4016 86.5997 59.8596 78.851L44.1891 28.9647H41.0891L37.2916 109.241H0.168945L5.08246 13.2968C5.39246 4.64923 10.151 0 19.6525 0L55.9691 0C64.6801 0 69.9192 3.95185 71.4692 12.026L83.4972 50.0257C85.2332 55.2484 85.2332 61.2769 86.0392 66.8094H88.2092C88.9997 61.2769 89.3097 55.2484 90.9062 50.0257L102.299 12.026C104.019 3.95185 109.429 0 118.295 0L155.03 0Z" fill="black"/>
<path d="M192.664 109.241V0L233.042 0V109.241H192.664Z" fill="black"/>
<path d="M382.137 154.54C382.137 165.389 376.665 171.433 365.722 171.433H347.603C337.899 171.433 332.924 167.434 329.002 157.485L303.365 100.377C298.901 87.7 296.406 73.5353 293.678 61.1064H292.128C293.12 74.2792 293.879 88.1959 293.879 100.873L293.631 171.433H250.169V16.8922C250.169 6.044 256.137 0 266.584 0L284.982 0C295.15 0 299.63 3.96734 303.582 13.9477L329.653 69.599C334.133 81.7645 335.853 93.6975 339.852 108.095H340.844C339.62 93.4495 339.294 80.0443 339.294 67.8013V0L382.044 0L382.137 154.54Z" fill="black"/>
<path d="M528.829 101.369C528.829 155.61 512.415 174.656 466.953 174.656C417.26 174.656 399.357 155.532 399.357 101.369V0L447.33 0V101.369C447.33 130.442 451.05 138.392 464.705 138.392C477.632 138.392 480.872 130.442 480.872 101.369V0L528.829 0V101.369Z" fill="black"/>
<path d="M545.771 171.433V0L593.821 0V171.433H545.771Z" fill="black"/>
<path d="M690.929 36.7754V171.433H642.739V36.7754H604.221V0L729.942 0V36.7754H690.929Z" fill="black"/>
<path d="M13.3285 160.553L11.7785 169.976H0.168945L8.53897 132.534C8.72498 131.678 9.2086 130.915 9.90388 130.382C10.5992 129.848 11.4611 129.579 12.3365 129.621H22.458C23.3503 129.591 24.2265 129.863 24.9461 130.391C25.6656 130.919 26.1868 131.674 26.426 132.534L34.6255 169.976H23.1555L21.6055 160.553H13.3285ZM18.6605 142.359C18.428 140.965 18.1955 139.446 18.0715 138.036H16.785C16.7152 139.485 16.5599 140.929 16.32 142.359L14.677 152.433H20.319L18.6605 142.359Z" fill="black"/>
<path d="M56.8061 166.876C56.6936 167.771 56.2449 168.589 55.5511 169.164C54.8573 169.74 53.9705 170.03 53.0706 169.976H43.1816C42.2804 170.007 41.3985 169.71 40.6999 169.14C40.0014 168.57 39.5338 167.765 39.384 166.876L31.541 129.683H43.2436L47.1031 157.051C47.2116 158.508 47.4441 160.15 47.5681 161.607H48.6841L49.2576 157.051L53.0086 129.683H64.7111L56.8061 166.876Z" fill="black"/>
<path d="M74.7861 160.553L73.2361 169.976H61.6266L69.9191 132.534C70.1112 131.678 70.5986 130.917 71.2958 130.384C71.993 129.851 72.8555 129.581 73.7321 129.621H83.8692C84.7614 129.591 85.6376 129.863 86.3572 130.391C87.0768 130.919 87.598 131.674 87.8372 132.534L96.0367 169.976H84.5667L83.0167 160.553H74.7861ZM80.1181 142.359C79.8701 140.965 79.6376 139.446 79.5291 138.036H78.2426C78.1729 139.485 78.0176 140.929 77.7776 142.359L76.1191 152.433H81.7301L80.1181 142.359Z" fill="black"/>
<path d="M128.68 165.993C128.757 166.523 128.711 167.064 128.546 167.573C128.381 168.083 128.102 168.548 127.729 168.933C127.356 169.317 126.9 169.611 126.396 169.792C125.892 169.973 125.353 170.036 124.82 169.976H120.558C118.264 169.976 117.101 169.031 116.156 166.69L110.219 153.254C109.269 150.205 108.508 147.099 107.941 143.956H107.584C107.817 147.055 107.987 150.341 107.987 153.254V169.867H97.6178V133.588C97.5527 133.061 97.6069 132.526 97.7762 132.022C97.9455 131.519 98.2257 131.06 98.5961 130.679C98.9666 130.298 99.4177 130.006 99.9164 129.822C100.415 129.639 100.948 129.57 101.477 129.621H105.802C108.204 129.621 109.258 130.55 110.188 132.891L116.388 146.001C117.427 148.853 117.845 151.673 118.775 155.052H119.023C118.729 151.611 118.667 148.45 118.667 145.583V129.621H128.726L128.68 165.993Z" fill="black"/>
<path d="M151.449 138.268V169.976H140.103V138.268H131.036V129.621H160.641V138.268H151.449Z" fill="black"/>
<path d="M185.348 158.57C185.304 159.149 185.486 159.723 185.856 160.17C186.226 160.618 186.755 160.905 187.332 160.972H198.57L199.035 169.449C193.129 170.065 187.192 170.318 181.256 170.208C177.799 170.208 174.048 166.458 174.048 161.266V129.621H185.348V158.57Z" fill="black"/>
<path d="M211.745 160.553L210.195 169.976H198.57L206.924 132.534C207.116 131.678 207.604 130.917 208.301 130.384C208.998 129.851 209.861 129.581 210.737 129.621H220.859C221.765 129.576 222.66 129.839 223.398 130.368C224.136 130.897 224.672 131.661 224.92 132.534L233.119 169.976H221.649L220.099 160.553H211.745ZM217.061 142.359C216.829 140.965 216.596 139.446 216.488 138.036H215.201C215.131 139.485 214.976 140.929 214.736 142.359L213.093 152.433H218.72L217.061 142.359Z" fill="black"/>
</g>
<path d="M49.6 211.9C49.6 214.433 49.1 216.867 48.1 219.2C47.1 221.533 45.8 223.8 44.2 226C42.6 228.133 40.8 230.2 38.8 232.2C36.8 234.2 34.8333 236.1 32.9 237.9C31.9 238.833 30.8 239.9 29.6 241.1C28.4667 242.233 27.3667 243.4 26.3 244.6C25.2333 245.8 24.2667 246.933 23.4 248C22.6 249 22.1 249.833 21.9 250.5H51.7V263H5.5C5.36667 262.267 5.3 261.333 5.3 260.2C5.3 259.067 5.3 258.267 5.3 257.8C5.3 254.6 5.8 251.667 6.8 249C7.86667 246.333 9.23333 243.867 10.9 241.6C12.5667 239.267 14.4333 237.1 16.5 235.1C18.6333 233.1 20.7333 231.1 22.8 229.1C24.4 227.567 25.9 226.133 27.3 224.8C28.7 223.4 29.9333 222.067 31 220.8C32.0667 219.467 32.9 218.167 33.5 216.9C34.1 215.567 34.4 214.233 34.4 212.9C34.4 209.967 33.5667 207.9 31.9 206.7C30.2333 205.5 28.1667 204.9 25.7 204.9C23.9 204.9 22.2 205.2 20.6 205.8C19.0667 206.333 17.6333 207 16.3 207.8C15.0333 208.533 13.9333 209.3 13 210.1C12.0667 210.833 11.3667 211.433 10.9 211.9L3.5 201.5C6.43333 198.767 9.83333 196.533 13.7 194.8C17.6333 193 21.8333 192.1 26.3 192.1C30.3667 192.1 33.8667 192.567 36.8 193.5C39.7333 194.433 42.1333 195.767 44 197.5C45.9333 199.167 47.3333 201.233 48.2 203.7C49.1333 206.1 49.6 208.833 49.6 211.9ZM109.436 211.9C109.436 214.433 108.936 216.867 107.936 219.2C106.936 221.533 105.636 223.8 104.036 226C102.436 228.133 100.636 230.2 98.6359 232.2C96.6359 234.2 94.6693 236.1 92.7359 237.9C91.7359 238.833 90.6359 239.9 89.4359 241.1C88.3026 242.233 87.2026 243.4 86.1359 244.6C85.0693 245.8 84.1026 246.933 83.2359 248C82.4359 249 81.9359 249.833 81.7359 250.5H111.536V263H65.3359C65.2026 262.267 65.1359 261.333 65.1359 260.2C65.1359 259.067 65.1359 258.267 65.1359 257.8C65.1359 254.6 65.6359 251.667 66.6359 249C67.7026 246.333 69.0693 243.867 70.7359 241.6C72.4026 239.267 74.2693 237.1 76.3359 235.1C78.4693 233.1 80.5693 231.1 82.6359 229.1C84.2359 227.567 85.7359 226.133 87.1359 224.8C88.5359 223.4 89.7693 222.067 90.8359 220.8C91.9026 219.467 92.7359 218.167 93.3359 216.9C93.9359 215.567 94.2359 214.233 94.2359 212.9C94.2359 209.967 93.4026 207.9 91.7359 206.7C90.0693 205.5 88.0026 204.9 85.5359 204.9C83.7359 204.9 82.0359 205.2 80.4359 205.8C78.9026 206.333 77.4693 207 76.1359 207.8C74.8693 208.533 73.7693 209.3 72.8359 210.1C71.9026 210.833 71.2026 211.433 70.7359 211.9L63.3359 201.5C66.2693 198.767 69.6693 196.533 73.5359 194.8C77.4693 193 81.6693 192.1 86.1359 192.1C90.2026 192.1 93.7026 192.567 96.6359 193.5C99.5693 194.433 101.969 195.767 103.836 197.5C105.769 199.167 107.169 201.233 108.036 203.7C108.969 206.1 109.436 208.833 109.436 211.9ZM122.172 226.4H151.172V239.9H122.172V226.4ZM206.256 211.9C206.256 214.433 205.756 216.867 204.756 219.2C203.756 221.533 202.456 223.8 200.856 226C199.256 228.133 197.456 230.2 195.456 232.2C193.456 234.2 191.49 236.1 189.556 237.9C188.556 238.833 187.456 239.9 186.256 241.1C185.123 242.233 184.023 243.4 182.956 244.6C181.89 245.8 180.923 246.933 180.056 248C179.256 249 178.756 249.833 178.556 250.5H208.356V263H162.156C162.023 262.267 161.956 261.333 161.956 260.2C161.956 259.067 161.956 258.267 161.956 257.8C161.956 254.6 162.456 251.667 163.456 249C164.523 246.333 165.89 243.867 167.556 241.6C169.223 239.267 171.09 237.1 173.156 235.1C175.29 233.1 177.39 231.1 179.456 229.1C181.056 227.567 182.556 226.133 183.956 224.8C185.356 223.4 186.59 222.067 187.656 220.8C188.723 219.467 189.556 218.167 190.156 216.9C190.756 215.567 191.056 214.233 191.056 212.9C191.056 209.967 190.223 207.9 188.556 206.7C186.89 205.5 184.823 204.9 182.356 204.9C180.556 204.9 178.856 205.2 177.256 205.8C175.723 206.333 174.29 207 172.956 207.8C171.69 208.533 170.59 209.3 169.656 210.1C168.723 210.833 168.023 211.433 167.556 211.9L160.156 201.5C163.09 198.767 166.49 196.533 170.356 194.8C174.29 193 178.49 192.1 182.956 192.1C187.023 192.1 190.523 192.567 193.456 193.5C196.39 194.433 198.79 195.767 200.656 197.5C202.59 199.167 203.99 201.233 204.856 203.7C205.79 206.1 206.256 208.833 206.256 211.9ZM239.292 264.5C237.492 264.5 235.592 264.367 233.592 264.1C231.592 263.9 229.659 263.6 227.792 263.2C225.926 262.8 224.226 262.367 222.692 261.9C221.159 261.433 219.959 261 219.092 260.6L221.992 248.2C223.726 248.933 225.926 249.733 228.592 250.6C231.326 251.4 234.692 251.8 238.692 251.8C243.292 251.8 246.659 250.933 248.792 249.2C250.926 247.467 251.992 245.133 251.992 242.2C251.992 240.4 251.592 238.9 250.792 237.7C250.059 236.433 249.026 235.433 247.692 234.7C246.359 233.9 244.759 233.367 242.892 233.1C241.092 232.767 239.159 232.6 237.092 232.6H231.292V220.6H237.892C239.359 220.6 240.759 220.467 242.092 220.2C243.492 219.933 244.726 219.5 245.792 218.9C246.859 218.233 247.692 217.367 248.292 216.3C248.959 215.167 249.292 213.767 249.292 212.1C249.292 210.833 249.026 209.733 248.492 208.8C247.959 207.867 247.259 207.1 246.392 206.5C245.592 205.9 244.626 205.467 243.492 205.2C242.426 204.867 241.326 204.7 240.192 204.7C237.326 204.7 234.659 205.133 232.192 206C229.792 206.867 227.592 207.933 225.592 209.2L220.292 198.3C221.359 197.633 222.592 196.933 223.992 196.2C225.459 195.467 227.059 194.8 228.792 194.2C230.526 193.6 232.359 193.1 234.292 192.7C236.292 192.3 238.392 192.1 240.592 192.1C244.659 192.1 248.159 192.6 251.092 193.6C254.092 194.533 256.559 195.9 258.492 197.7C260.426 199.433 261.859 201.5 262.792 203.9C263.726 206.233 264.192 208.8 264.192 211.6C264.192 214.333 263.426 217 261.892 219.6C260.359 222.133 258.292 224.067 255.692 225.4C259.292 226.867 262.059 229.067 263.992 232C265.992 234.867 266.992 238.333 266.992 242.4C266.992 245.6 266.459 248.567 265.392 251.3C264.326 253.967 262.659 256.3 260.392 258.3C258.126 260.233 255.226 261.767 251.692 262.9C248.226 263.967 244.092 264.5 239.292 264.5ZM278.828 226.4H307.828V239.9H278.828V226.4ZM362.913 211.9C362.913 214.433 362.413 216.867 361.413 219.2C360.413 221.533 359.113 223.8 357.513 226C355.913 228.133 354.113 230.2 352.113 232.2C350.113 234.2 348.146 236.1 346.213 237.9C345.213 238.833 344.113 239.9 342.913 241.1C341.779 242.233 340.679 243.4 339.613 244.6C338.546 245.8 337.579 246.933 336.713 248C335.913 249 335.413 249.833 335.213 250.5H365.013V263H318.813C318.679 262.267 318.613 261.333 318.613 260.2C318.613 259.067 318.613 258.267 318.613 257.8C318.613 254.6 319.113 251.667 320.113 249C321.179 246.333 322.546 243.867 324.213 241.6C325.879 239.267 327.746 237.1 329.813 235.1C331.946 233.1 334.046 231.1 336.113 229.1C337.713 227.567 339.213 226.133 340.613 224.8C342.013 223.4 343.246 222.067 344.313 220.8C345.379 219.467 346.213 218.167 346.813 216.9C347.413 215.567 347.713 214.233 347.713 212.9C347.713 209.967 346.879 207.9 345.213 206.7C343.546 205.5 341.479 204.9 339.012 204.9C337.213 204.9 335.513 205.2 333.913 205.8C332.379 206.333 330.946 207 329.613 207.8C328.346 208.533 327.246 209.3 326.313 210.1C325.379 210.833 324.679 211.433 324.213 211.9L316.813 201.5C319.746 198.767 323.146 196.533 327.013 194.8C330.946 193 335.146 192.1 339.613 192.1C343.679 192.1 347.179 192.567 350.113 193.5C353.046 194.433 355.446 195.767 357.313 197.5C359.246 199.167 360.646 201.233 361.513 203.7C362.446 206.1 362.913 208.833 362.913 211.9ZM405.048 211.9C402.448 215.3 399.682 219 396.748 223C393.815 227 391.348 231.1 389.348 235.3H405.048V211.9ZM419.648 193.7V235.3H427.048V247.5H419.648V263H405.048V247.5H375.148V236.6C376.615 233.667 378.448 230.367 380.648 226.7C382.848 222.967 385.282 219.167 387.948 215.3C390.682 211.367 393.548 207.533 396.548 203.8C399.548 200.067 402.548 196.7 405.548 193.7H419.648Z" fill="black"/>
<path d="M468.36 218.232C468.36 220.136 468.155 221.909 467.744 223.552C467.333 225.195 466.605 226.632 465.56 227.864C464.552 229.096 463.171 230.067 461.416 230.776C459.699 231.485 457.515 231.84 454.864 231.84C452.4 231.84 450.253 231.504 448.424 230.832C446.632 230.123 445.251 229.376 444.28 228.592L446.8 223.048C447.733 223.683 448.872 224.299 450.216 224.896C451.597 225.456 452.997 225.736 454.416 225.736C456.805 225.736 458.541 225.139 459.624 223.944C460.707 222.749 461.248 220.696 461.248 217.784V192.192H468.36V218.232ZM492.311 231.84C489.66 231.84 487.383 231.467 485.479 230.72C483.575 229.936 481.988 228.853 480.719 227.472C479.487 226.091 478.572 224.467 477.975 222.6C477.378 220.733 477.079 218.68 477.079 216.44V192.192H484.191V215.768C484.191 217.523 484.378 219.035 484.751 220.304C485.162 221.536 485.722 222.544 486.431 223.328C487.178 224.112 488.036 224.691 489.007 225.064C490.015 225.437 491.135 225.624 492.367 225.624C493.599 225.624 494.719 225.437 495.727 225.064C496.735 224.691 497.594 224.112 498.303 223.328C499.05 222.544 499.61 221.536 499.983 220.304C500.394 219.035 500.599 217.523 500.599 215.768V192.192H507.711V216.44C507.711 218.68 507.394 220.733 506.759 222.6C506.162 224.467 505.228 226.091 503.959 227.472C502.727 228.853 501.14 229.936 499.199 230.72C497.258 231.467 494.962 231.84 492.311 231.84ZM516.734 192.192H523.79V231H516.734V192.192ZM559.238 231C557.968 228.872 556.55 226.595 554.982 224.168C553.414 221.704 551.79 219.24 550.11 216.776C548.43 214.275 546.712 211.867 544.958 209.552C543.24 207.2 541.598 205.091 540.03 203.224V231H533.086V192.192H538.854C540.347 193.76 541.952 195.627 543.67 197.792C545.387 199.92 547.104 202.141 548.822 204.456C550.576 206.771 552.256 209.104 553.862 211.456C555.504 213.771 556.96 215.936 558.23 217.952V192.192H565.23V231H559.238ZM571.179 211.904H586.243V218.12H571.179V211.904ZM614.491 202.272C614.491 203.616 614.211 204.941 613.651 206.248C613.091 207.517 612.363 208.768 611.467 210C610.608 211.195 609.619 212.371 608.499 213.528C607.379 214.648 606.259 215.749 605.139 216.832C604.541 217.392 603.869 218.064 603.123 218.848C602.376 219.632 601.667 220.416 600.995 221.2C600.323 221.984 599.744 222.749 599.259 223.496C598.773 224.205 598.512 224.803 598.475 225.288H615.723V231H591.027C590.989 230.701 590.971 230.347 590.971 229.936C590.971 229.488 590.971 229.152 590.971 228.928C590.971 227.136 591.251 225.493 591.811 224C592.408 222.469 593.173 221.051 594.107 219.744C595.04 218.437 596.085 217.205 597.243 216.048C598.4 214.891 599.557 213.752 600.715 212.632C601.611 211.773 602.469 210.933 603.291 210.112C604.112 209.291 604.821 208.488 605.419 207.704C606.053 206.883 606.557 206.061 606.931 205.24C607.304 204.381 607.491 203.504 607.491 202.608C607.491 200.667 606.931 199.285 605.811 198.464C604.691 197.643 603.328 197.232 601.723 197.232C600.677 197.232 599.707 197.381 598.811 197.68C597.915 197.979 597.112 198.333 596.403 198.744C595.731 199.155 595.133 199.584 594.611 200.032C594.088 200.443 593.696 200.779 593.435 201.04L590.075 196.28C591.643 194.787 593.472 193.592 595.563 192.696C597.691 191.763 599.968 191.296 602.395 191.296C606.539 191.296 609.581 192.285 611.523 194.264C613.501 196.205 614.491 198.875 614.491 202.272ZM648.783 211.568C648.783 218.101 647.588 223.123 645.199 226.632C642.809 230.104 639.505 231.84 635.287 231.84C631.068 231.84 627.764 230.104 625.375 226.632C622.985 223.123 621.791 218.101 621.791 211.568C621.791 208.32 622.089 205.445 622.687 202.944C623.321 200.405 624.217 198.277 625.375 196.56C626.569 194.843 627.988 193.536 629.631 192.64C631.311 191.744 633.196 191.296 635.287 191.296C639.505 191.296 642.809 193.051 645.199 196.56C647.588 200.032 648.783 205.035 648.783 211.568ZM641.783 211.568C641.783 209.552 641.671 207.667 641.447 205.912C641.223 204.157 640.849 202.645 640.327 201.376C639.841 200.069 639.188 199.043 638.367 198.296C637.545 197.549 636.519 197.176 635.287 197.176C634.055 197.176 633.009 197.549 632.151 198.296C631.329 199.043 630.657 200.069 630.135 201.376C629.649 202.645 629.295 204.157 629.071 205.912C628.884 207.667 628.791 209.552 628.791 211.568C628.791 213.584 628.884 215.469 629.071 217.224C629.295 218.979 629.649 220.509 630.135 221.816C630.657 223.085 631.329 224.093 632.151 224.84C633.009 225.587 634.055 225.96 635.287 225.96C636.519 225.96 637.545 225.587 638.367 224.84C639.188 224.093 639.841 223.085 640.327 221.816C640.849 220.509 641.223 218.979 641.447 217.224C641.671 215.469 641.783 213.584 641.783 211.568ZM678.147 202.272C678.147 203.616 677.867 204.941 677.307 206.248C676.747 207.517 676.019 208.768 675.123 210C674.264 211.195 673.275 212.371 672.155 213.528C671.035 214.648 669.915 215.749 668.795 216.832C668.198 217.392 667.526 218.064 666.779 218.848C666.032 219.632 665.323 220.416 664.651 221.2C663.979 221.984 663.4 222.749 662.915 223.496C662.43 224.205 662.168 224.803 662.131 225.288H679.379V231H654.683C654.646 230.701 654.627 230.347 654.627 229.936C654.627 229.488 654.627 229.152 654.627 228.928C654.627 227.136 654.907 225.493 655.467 224C656.064 222.469 656.83 221.051 657.763 219.744C658.696 218.437 659.742 217.205 660.899 216.048C662.056 214.891 663.214 213.752 664.371 212.632C665.267 211.773 666.126 210.933 666.947 210.112C667.768 209.291 668.478 208.488 669.075 207.704C669.71 206.883 670.214 206.061 670.587 205.24C670.96 204.381 671.147 203.504 671.147 202.608C671.147 200.667 670.587 199.285 669.467 198.464C668.347 197.643 666.984 197.232 665.379 197.232C664.334 197.232 663.363 197.381 662.467 197.68C661.571 197.979 660.768 198.333 660.059 198.744C659.387 199.155 658.79 199.584 658.267 200.032C657.744 200.443 657.352 200.779 657.091 201.04L653.731 196.28C655.299 194.787 657.128 193.592 659.219 192.696C661.347 191.763 663.624 191.296 666.051 191.296C670.195 191.296 673.238 192.285 675.179 194.264C677.158 196.205 678.147 198.875 678.147 202.272ZM709.975 202.272C709.975 203.616 709.695 204.941 709.135 206.248C708.575 207.517 707.847 208.768 706.951 210C706.092 211.195 705.103 212.371 703.983 213.528C702.863 214.648 701.743 215.749 700.623 216.832C700.026 217.392 699.354 218.064 698.607 218.848C697.86 219.632 697.151 220.416 696.479 221.2C695.807 221.984 695.228 222.749 694.743 223.496C694.258 224.205 693.996 224.803 693.959 225.288H711.207V231H686.511C686.474 230.701 686.455 230.347 686.455 229.936C686.455 229.488 686.455 229.152 686.455 228.928C686.455 227.136 686.735 225.493 687.295 224C687.892 222.469 688.658 221.051 689.591 219.744C690.524 218.437 691.57 217.205 692.727 216.048C693.884 214.891 695.042 213.752 696.199 212.632C697.095 211.773 697.954 210.933 698.775 210.112C699.596 209.291 700.306 208.488 700.903 207.704C701.538 206.883 702.042 206.061 702.415 205.24C702.788 204.381 702.975 203.504 702.975 202.608C702.975 200.667 702.415 199.285 701.295 198.464C700.175 197.643 698.812 197.232 697.207 197.232C696.162 197.232 695.191 197.381 694.295 197.68C693.399 197.979 692.596 198.333 691.887 198.744C691.215 199.155 690.618 199.584 690.095 200.032C689.572 200.443 689.18 200.779 688.919 201.04L685.559 196.28C687.127 194.787 688.956 193.592 691.047 192.696C693.175 191.763 695.452 191.296 697.879 191.296C702.023 191.296 705.066 192.285 707.007 194.264C708.986 196.205 709.975 198.875 709.975 202.272Z" fill="black"/>
<path d="M460.485 263C460.279 262.399 460.067 261.805 459.847 261.218C459.627 260.631 459.414 260.03 459.209 259.414H452.785C452.579 260.03 452.367 260.639 452.147 261.24C451.941 261.827 451.736 262.413 451.531 263H448.649C449.221 261.372 449.763 259.869 450.277 258.49C450.79 257.111 451.289 255.806 451.773 254.574C452.271 253.342 452.763 252.169 453.247 251.054C453.731 249.939 454.229 248.839 454.743 247.754H457.361C457.874 248.839 458.373 249.939 458.857 251.054C459.341 252.169 459.825 253.342 460.309 254.574C460.807 255.806 461.313 257.111 461.827 258.49C462.355 259.869 462.905 261.372 463.477 263H460.485ZM455.997 250.702C455.659 251.479 455.271 252.425 454.831 253.54C454.405 254.655 453.958 255.865 453.489 257.17H458.505C458.035 255.865 457.581 254.647 457.141 253.518C456.701 252.389 456.319 251.45 455.997 250.702ZM469.166 247.754C469.488 248.311 469.848 248.993 470.244 249.8C470.64 250.607 471.043 251.457 471.454 252.352C471.864 253.232 472.268 254.134 472.664 255.058C473.074 255.967 473.448 256.811 473.786 257.588C474.123 256.811 474.49 255.967 474.886 255.058C475.282 254.134 475.685 253.232 476.096 252.352C476.506 251.457 476.91 250.607 477.306 249.8C477.702 248.993 478.061 248.311 478.384 247.754H480.892C481.024 248.869 481.148 250.057 481.266 251.318C481.383 252.565 481.486 253.848 481.574 255.168C481.676 256.473 481.764 257.793 481.838 259.128C481.926 260.448 481.999 261.739 482.058 263H479.33C479.271 261.225 479.198 259.399 479.11 257.522C479.036 255.645 478.919 253.826 478.758 252.066C478.596 252.403 478.406 252.807 478.186 253.276C477.966 253.745 477.731 254.259 477.482 254.816C477.232 255.359 476.976 255.923 476.712 256.51C476.462 257.097 476.213 257.669 475.964 258.226C475.729 258.769 475.509 259.282 475.304 259.766C475.098 260.235 474.922 260.639 474.776 260.976H472.708C472.561 260.639 472.385 260.228 472.18 259.744C471.974 259.26 471.747 258.747 471.498 258.204C471.263 257.647 471.014 257.075 470.75 256.488C470.5 255.901 470.251 255.337 470.002 254.794C469.752 254.251 469.518 253.745 469.298 253.276C469.078 252.792 468.887 252.389 468.726 252.066C468.564 253.826 468.44 255.645 468.352 257.522C468.278 259.399 468.212 261.225 468.154 263H465.426C465.484 261.739 465.55 260.433 465.624 259.084C465.712 257.735 465.8 256.4 465.888 255.08C465.99 253.745 466.1 252.455 466.218 251.208C466.335 249.961 466.46 248.81 466.592 247.754H469.166ZM485.727 247.754H488.499V263H485.727V247.754ZM492.591 263V247.754H502.381V250.108H495.363V253.87H501.611V256.18H495.363V260.646H502.909V263H492.591ZM516.196 263C515.697 262.164 515.14 261.269 514.524 260.316C513.908 259.348 513.27 258.38 512.61 257.412C511.95 256.429 511.275 255.483 510.586 254.574C509.911 253.65 509.266 252.821 508.65 252.088V263H505.922V247.754H508.188C508.774 248.37 509.405 249.103 510.08 249.954C510.754 250.79 511.429 251.663 512.104 252.572C512.793 253.481 513.453 254.398 514.084 255.322C514.729 256.231 515.301 257.082 515.8 257.874V247.754H518.55V263H516.196ZM526.343 260.932C527.34 260.932 528.066 260.763 528.521 260.426C528.975 260.089 529.203 259.612 529.203 258.996C529.203 258.629 529.122 258.314 528.961 258.05C528.814 257.786 528.594 257.551 528.301 257.346C528.022 257.126 527.677 256.928 527.267 256.752C526.856 256.561 526.387 256.378 525.859 256.202C525.331 256.011 524.817 255.806 524.319 255.586C523.835 255.351 523.402 255.065 523.021 254.728C522.654 254.391 522.353 253.987 522.119 253.518C521.899 253.049 521.789 252.484 521.789 251.824C521.789 250.445 522.265 249.367 523.219 248.59C524.172 247.798 525.47 247.402 527.113 247.402C528.066 247.402 528.909 247.512 529.643 247.732C530.391 247.937 530.977 248.165 531.403 248.414L530.545 250.658C530.046 250.379 529.496 250.167 528.895 250.02C528.308 249.873 527.699 249.8 527.069 249.8C526.321 249.8 525.734 249.954 525.309 250.262C524.898 250.57 524.693 251.003 524.693 251.56C524.693 251.897 524.759 252.191 524.891 252.44C525.037 252.675 525.235 252.887 525.485 253.078C525.749 253.269 526.049 253.445 526.387 253.606C526.739 253.767 527.12 253.921 527.531 254.068C528.249 254.332 528.887 254.603 529.445 254.882C530.017 255.146 530.493 255.469 530.875 255.85C531.271 256.217 531.571 256.657 531.777 257.17C531.982 257.669 532.085 258.277 532.085 258.996C532.085 260.375 531.593 261.445 530.611 262.208C529.643 262.956 528.22 263.33 526.343 263.33C525.712 263.33 525.133 263.286 524.605 263.198C524.091 263.125 523.629 263.029 523.219 262.912C522.823 262.795 522.478 262.677 522.185 262.56C521.891 262.428 521.657 262.311 521.481 262.208L522.295 259.942C522.691 260.162 523.226 260.382 523.901 260.602C524.575 260.822 525.389 260.932 526.343 260.932ZM537.058 260.492C537.072 260.609 537.08 260.727 537.08 260.844C537.08 260.947 537.08 261.057 537.08 261.174C537.08 262.098 536.94 263.007 536.662 263.902C536.398 264.811 536.031 265.677 535.562 266.498L533.978 265.992C534.344 265.244 534.586 264.481 534.704 263.704C534.821 262.941 534.88 262.223 534.88 261.548C534.88 261.357 534.872 261.174 534.858 260.998C534.858 260.822 534.85 260.653 534.836 260.492H537.058ZM550.468 247.6C552.609 247.6 554.252 248.011 555.396 248.832C556.554 249.639 557.134 250.849 557.134 252.462C557.134 253.342 556.972 254.097 556.65 254.728C556.342 255.344 555.887 255.85 555.286 256.246C554.699 256.627 553.98 256.906 553.13 257.082C552.279 257.258 551.318 257.346 550.248 257.346H548.554V263H546.42V247.974C547.021 247.827 547.688 247.732 548.422 247.688C549.17 247.629 549.852 247.6 550.468 247.6ZM550.644 249.47C549.734 249.47 549.038 249.492 548.554 249.536V255.52H550.16C550.893 255.52 551.553 255.476 552.14 255.388C552.726 255.285 553.218 255.124 553.614 254.904C554.024 254.669 554.34 254.354 554.56 253.958C554.78 253.562 554.89 253.056 554.89 252.44C554.89 251.853 554.772 251.369 554.538 250.988C554.318 250.607 554.01 250.306 553.614 250.086C553.232 249.851 552.785 249.69 552.272 249.602C551.758 249.514 551.216 249.47 550.644 249.47ZM569.335 263C569.085 262.34 568.851 261.695 568.631 261.064C568.411 260.419 568.183 259.766 567.949 259.106H561.041L559.655 263H557.433C558.019 261.387 558.569 259.898 559.083 258.534C559.596 257.155 560.095 255.85 560.579 254.618C561.077 253.386 561.569 252.213 562.053 251.098C562.537 249.969 563.043 248.854 563.571 247.754H565.529C566.057 248.854 566.563 249.969 567.047 251.098C567.531 252.213 568.015 253.386 568.499 254.618C568.997 255.85 569.503 257.155 570.017 258.534C570.53 259.898 571.08 261.387 571.667 263H569.335ZM567.333 257.346C566.863 256.07 566.394 254.838 565.925 253.65C565.47 252.447 564.993 251.296 564.495 250.196C563.981 251.296 563.49 252.447 563.021 253.65C562.566 254.838 562.111 256.07 561.657 257.346H567.333ZM581.634 256.62C581.869 256.913 582.162 257.302 582.514 257.786C582.881 258.255 583.255 258.783 583.636 259.37C584.018 259.942 584.392 260.543 584.758 261.174C585.14 261.805 585.462 262.413 585.726 263H583.394C583.101 262.443 582.778 261.878 582.426 261.306C582.089 260.734 581.744 260.191 581.392 259.678C581.04 259.15 580.688 258.659 580.336 258.204C579.999 257.749 579.691 257.353 579.412 257.016C579.222 257.031 579.024 257.038 578.818 257.038C578.628 257.038 578.43 257.038 578.224 257.038H576.31V263H574.176V247.974C574.778 247.827 575.445 247.732 576.178 247.688C576.926 247.629 577.608 247.6 578.224 247.6C580.366 247.6 581.994 248.003 583.108 248.81C584.238 249.617 584.802 250.819 584.802 252.418C584.802 253.43 584.531 254.295 583.988 255.014C583.46 255.733 582.676 256.268 581.634 256.62ZM578.4 249.47C577.491 249.47 576.794 249.492 576.31 249.536V255.278H577.828C578.562 255.278 579.222 255.241 579.808 255.168C580.395 255.095 580.886 254.955 581.282 254.75C581.693 254.545 582.008 254.259 582.228 253.892C582.448 253.511 582.558 253.012 582.558 252.396C582.558 251.824 582.448 251.347 582.228 250.966C582.008 250.585 581.708 250.284 581.326 250.064C580.96 249.844 580.52 249.69 580.006 249.602C579.508 249.514 578.972 249.47 578.4 249.47ZM594.772 263.33C593.701 263.33 592.726 263.154 591.846 262.802C590.966 262.45 590.211 261.937 589.58 261.262C588.949 260.587 588.458 259.759 588.106 258.776C587.769 257.779 587.6 256.642 587.6 255.366C587.6 254.09 587.791 252.961 588.172 251.978C588.568 250.981 589.096 250.145 589.756 249.47C590.416 248.795 591.186 248.282 592.066 247.93C592.946 247.578 593.885 247.402 594.882 247.402C595.513 247.402 596.077 247.446 596.576 247.534C597.089 247.622 597.529 247.725 597.896 247.842C598.277 247.959 598.585 248.077 598.82 248.194C599.055 248.311 599.216 248.399 599.304 248.458L598.688 250.218C598.556 250.13 598.365 250.035 598.116 249.932C597.867 249.829 597.581 249.727 597.258 249.624C596.95 249.521 596.605 249.441 596.224 249.382C595.857 249.309 595.483 249.272 595.102 249.272C594.295 249.272 593.569 249.411 592.924 249.69C592.279 249.969 591.729 250.372 591.274 250.9C590.819 251.428 590.467 252.073 590.218 252.836C589.983 253.584 589.866 254.427 589.866 255.366C589.866 256.275 589.969 257.104 590.174 257.852C590.394 258.6 590.717 259.245 591.142 259.788C591.567 260.316 592.095 260.727 592.726 261.02C593.371 261.313 594.119 261.46 594.97 261.46C595.953 261.46 596.767 261.357 597.412 261.152C598.057 260.947 598.541 260.763 598.864 260.602L599.414 262.362C599.311 262.435 599.128 262.531 598.864 262.648C598.6 262.751 598.27 262.853 597.874 262.956C597.478 263.059 597.016 263.147 596.488 263.22C595.96 263.293 595.388 263.33 594.772 263.33ZM611.372 261.482C613.602 261.482 614.716 260.719 614.716 259.194C614.716 258.725 614.614 258.329 614.408 258.006C614.218 257.669 613.954 257.383 613.616 257.148C613.279 256.899 612.89 256.686 612.45 256.51C612.025 256.334 611.57 256.158 611.086 255.982C610.529 255.791 610.001 255.579 609.502 255.344C609.004 255.095 608.571 254.809 608.204 254.486C607.838 254.149 607.544 253.753 607.324 253.298C607.119 252.843 607.016 252.293 607.016 251.648C607.016 250.313 607.471 249.272 608.38 248.524C609.29 247.776 610.544 247.402 612.142 247.402C613.066 247.402 613.902 247.505 614.65 247.71C615.413 247.901 615.97 248.113 616.322 248.348L615.64 250.086C615.332 249.895 614.87 249.712 614.254 249.536C613.653 249.345 612.949 249.25 612.142 249.25C611.732 249.25 611.35 249.294 610.998 249.382C610.646 249.47 610.338 249.602 610.074 249.778C609.81 249.954 609.598 250.181 609.436 250.46C609.29 250.724 609.216 251.039 609.216 251.406C609.216 251.817 609.297 252.161 609.458 252.44C609.62 252.719 609.847 252.968 610.14 253.188C610.434 253.393 610.771 253.584 611.152 253.76C611.548 253.936 611.981 254.112 612.45 254.288C613.11 254.552 613.712 254.816 614.254 255.08C614.812 255.344 615.288 255.659 615.684 256.026C616.095 256.393 616.41 256.833 616.63 257.346C616.85 257.845 616.96 258.453 616.96 259.172C616.96 260.507 616.469 261.533 615.486 262.252C614.518 262.971 613.147 263.33 611.372 263.33C610.771 263.33 610.214 263.286 609.7 263.198C609.202 263.125 608.754 263.037 608.358 262.934C607.962 262.817 607.618 262.699 607.324 262.582C607.046 262.45 606.826 262.34 606.664 262.252L607.302 260.492C607.64 260.683 608.153 260.895 608.842 261.13C609.532 261.365 610.375 261.482 611.372 261.482ZM630.165 247.754V249.602H625.369V263H623.235V249.602H618.439V247.754H630.165ZM633.493 261.812C633.493 262.208 633.361 262.553 633.097 262.846C632.833 263.139 632.473 263.286 632.019 263.286C631.564 263.286 631.205 263.139 630.941 262.846C630.677 262.553 630.545 262.208 630.545 261.812C630.545 261.416 630.677 261.071 630.941 260.778C631.205 260.485 631.564 260.338 632.019 260.338C632.473 260.338 632.833 260.485 633.097 260.778C633.361 261.071 633.493 261.416 633.493 261.812ZM646.638 247.6C648.78 247.6 650.422 248.011 651.566 248.832C652.725 249.639 653.304 250.849 653.304 252.462C653.304 253.342 653.143 254.097 652.82 254.728C652.512 255.344 652.058 255.85 651.456 256.246C650.87 256.627 650.151 256.906 649.3 257.082C648.45 257.258 647.489 257.346 646.418 257.346H644.724V263H642.59V247.974C643.192 247.827 643.859 247.732 644.592 247.688C645.34 247.629 646.022 247.6 646.638 247.6ZM646.814 249.47C645.905 249.47 645.208 249.492 644.724 249.536V255.52H646.33C647.064 255.52 647.724 255.476 648.31 255.388C648.897 255.285 649.388 255.124 649.784 254.904C650.195 254.669 650.51 254.354 650.73 253.958C650.95 253.562 651.06 253.056 651.06 252.44C651.06 251.853 650.943 251.369 650.708 250.988C650.488 250.607 650.18 250.306 649.784 250.086C649.403 249.851 648.956 249.69 648.442 249.602C647.929 249.514 647.386 249.47 646.814 249.47ZM656.415 247.754H658.549V263H656.415V247.754ZM662.763 263V247.754H672.069V249.58H664.897V254.112H671.277V255.894H664.897V261.174L672.619 261.174V263L662.763 263ZM683.23 256.62C683.464 256.913 683.758 257.302 684.11 257.786C684.476 258.255 684.85 258.783 685.232 259.37C685.613 259.942 685.987 260.543 686.354 261.174C686.735 261.805 687.058 262.413 687.322 263H684.99C684.696 262.443 684.374 261.878 684.022 261.306C683.684 260.734 683.34 260.191 682.988 259.678C682.636 259.15 682.284 258.659 681.932 258.204C681.594 257.749 681.286 257.353 681.008 257.016C680.817 257.031 680.619 257.038 680.414 257.038C680.223 257.038 680.025 257.038 679.82 257.038H677.906V263H675.772V247.974C676.373 247.827 677.04 247.732 677.774 247.688C678.522 247.629 679.204 247.6 679.82 247.6C681.961 247.6 683.589 248.003 684.704 248.81C685.833 249.617 686.398 250.819 686.398 252.418C686.398 253.43 686.126 254.295 685.584 255.014C685.056 255.733 684.271 256.268 683.23 256.62ZM679.996 249.47C679.086 249.47 678.39 249.492 677.906 249.536V255.278H679.424C680.157 255.278 680.817 255.241 681.404 255.168C681.99 255.095 682.482 254.955 682.878 254.75C683.288 254.545 683.604 254.259 683.824 253.892C684.044 253.511 684.154 253.012 684.154 252.396C684.154 251.824 684.044 251.347 683.824 250.966C683.604 250.585 683.303 250.284 682.922 250.064C682.555 249.844 682.115 249.69 681.602 249.602C681.103 249.514 680.568 249.47 679.996 249.47ZM697.506 256.62C697.74 256.913 698.034 257.302 698.386 257.786C698.752 258.255 699.126 258.783 699.508 259.37C699.889 259.942 700.263 260.543 700.63 261.174C701.011 261.805 701.334 262.413 701.598 263H699.266C698.972 262.443 698.65 261.878 698.298 261.306C697.96 260.734 697.616 260.191 697.264 259.678C696.912 259.15 696.56 258.659 696.208 258.204C695.87 257.749 695.562 257.353 695.284 257.016C695.093 257.031 694.895 257.038 694.69 257.038C694.499 257.038 694.301 257.038 694.096 257.038H692.182V263H690.048V247.974C690.649 247.827 691.316 247.732 692.05 247.688C692.798 247.629 693.48 247.6 694.096 247.6C696.237 247.6 697.865 248.003 698.98 248.81C700.109 249.617 700.674 250.819 700.674 252.418C700.674 253.43 700.402 254.295 699.86 255.014C699.332 255.733 698.547 256.268 697.506 256.62ZM694.272 249.47C693.362 249.47 692.666 249.492 692.182 249.536V255.278H693.7C694.433 255.278 695.093 255.241 695.68 255.168C696.266 255.095 696.758 254.955 697.154 254.75C697.564 254.545 697.88 254.259 698.1 253.892C698.32 253.511 698.43 253.012 698.43 252.396C698.43 251.824 698.32 251.347 698.1 250.966C697.88 250.585 697.579 250.284 697.198 250.064C696.831 249.844 696.391 249.69 695.878 249.602C695.379 249.514 694.844 249.47 694.272 249.47ZM704.324 263V247.754H713.63V249.58H706.458V254.112H712.838V255.894H706.458V261.174H714.18V263H704.324Z" fill="black"/>
<defs>
<clipPath id="clip0_104_262">
<rect width="729.773" height="174.656" fill="white" transform="translate(0.168945)"/>
</clipPath>
</defs>
</svg>
