<svg width="67" height="55" viewBox="0 0 67 55" fill="none" xmlns="http://www.w3.org/2000/svg">
<path d="M67 6.524C64.5361 7.62648 61.8893 8.37139 59.1067 8.70809C61.9778 6.97331 64.1258 4.24298 65.1499 1.02655C62.4524 2.64447 59.5002 3.78331 56.4215 4.39355C54.3512 2.16139 51.609 0.681877 48.6207 0.184716C45.6323 -0.312446 42.565 0.20056 39.895 1.64409C37.225 3.08761 35.1016 5.3809 33.8545 8.16789C32.6075 10.9549 32.3065 14.0797 32.9984 17.0571C27.5326 16.78 22.1857 15.3454 17.3045 12.8465C12.4234 10.3477 8.11708 6.84033 4.66515 2.55213C3.48485 4.60809 2.80617 6.99181 2.80617 9.53047C2.80486 11.8159 3.36219 14.0662 4.42874 16.0819C5.49528 18.0976 7.03804 19.8163 8.92015 21.0856C6.73741 21.0154 4.60281 20.4199 2.69405 19.3484V19.5272C2.69383 22.7325 3.79183 25.8392 5.80174 28.3202C7.81165 30.8011 10.6097 32.5034 13.721 33.1383C11.6962 33.6916 9.57327 33.7731 7.51264 33.3766C8.39048 36.1346 10.1004 38.5464 12.4031 40.2743C14.7058 42.0022 17.486 42.9597 20.3544 43.0128C15.4851 46.8727 9.47161 48.9664 3.28125 48.9572C2.18469 48.9575 1.08906 48.8929 0 48.7636C6.28358 52.8432 13.5981 55.0084 21.0684 55C46.3565 55 60.1808 33.8504 60.1808 15.5077C60.1808 14.9117 60.166 14.3098 60.1395 13.7139C62.8285 11.7502 65.1496 9.31861 66.9941 6.53294L67 6.524Z" fill="black"/>
</svg>
